<svg width="145" height="69" viewBox="0 0 145 69" fill="none" xmlns="http://www.w3.org/2000/svg">
<g clip-path="url(#clip0_3050_11269)">
<path d="M18.9627 62.6212H24.1848L34.6289 52.0758V27.4697H29.4068L34.6289 22.197V6.37879H22.4441L12 16.9242V55.5909L18.9627 62.6212ZM18.9627 32.7424V13.4091H27.6661V27.4697H24.1848L18.9627 32.7424ZM18.9627 55.5909V34.5H27.6661V55.5909H18.9627Z" fill="#FFFCB6"/>
<path d="M40.7564 62.6212H45.1081L52.0708 55.5909H47.7191V5.5L40.7564 12.5303V62.6212Z" fill="#FFFCB6"/>
<path d="M60.7515 62.6212H62.4922L67.7143 57.3485V62.6212H72.066L79.0287 55.5909H74.677V20.4394H64.2329L53.7888 30.9848V39.7727L60.7515 32.7424V27.4697H67.7143V36.2576H64.2329L53.7888 46.7298V55.5909L60.7515 62.6212ZM60.7515 55.5909V43.2879H67.7143V55.5909H60.7515Z" fill="#FFFCB6"/>
<path d="M80.7745 63.5L87.7372 56.4697V27.4697H94.6999V62.6212H99.0516L106.014 55.5909H101.663V20.4394H91.2186L80.9195 30.8384L80.7745 30.9116V63.5Z" fill="#FFFCB6"/>
<path d="M107.76 63.5L114.723 56.4697V45.0455H121.686V62.6212H126.037L133 55.5909H128.648V38.0152H123.426L128.648 32.7424V20.4394H119.945L114.723 25.7121V5.5L107.76 12.4571V63.5ZM114.723 43.2879V27.4697H121.686V38.0152H119.945L114.723 43.2879Z" fill="#FFFCB6"/>
</g>
<defs>
<clipPath id="clip0_3050_11269">
<rect width="121" height="58" fill="white" transform="translate(12 5.5)"/>
</clipPath>
</defs>
</svg>
